<svg width="142" height="126" viewBox="0 0 142 126" fill="none" xmlns="http://www.w3.org/2000/svg">
<path d="M70.9994 0.00965461C73.0886 -0.090711 75.2175 0.590789 76.9056 2.08485L139.209 57.2284C142.638 60.2633 142.951 65.4979 139.909 68.9198C136.866 72.3417 131.619 72.6549 128.19 69.62L123.934 65.8524V118.142C123.934 118.254 123.93 118.366 123.925 118.476C123.925 118.5 123.927 118.525 123.927 118.549C123.912 122.679 120.55 126.014 116.42 125.999L26.4681 125.666C23.885 125.656 21.6118 124.338 20.2757 122.342C19.4641 121.144 18.9896 119.698 18.9896 118.142V65.035L13.8099 69.62C10.3811 72.6548 5.13498 72.3414 2.09213 68.9198C-0.95069 65.4979 -0.637585 60.2633 2.79135 57.2284L65.0951 2.08485C66.7827 0.591117 68.9105 -0.0903458 70.9994 0.00965461ZM33.9818 51.7655V110.736L108.942 111.014V52.5839L70.9994 19.0018L33.9818 51.7655ZM75.9593 66.8075H92.9505V75.7821H75.9593V93.7304H66.9642V75.7821H48.974V66.8075H66.9642V49.8563H75.9593V66.8075Z" fill="white"/>
</svg>
