<svg width="142" height="126" viewBox="0 0 142 126" fill="none" xmlns="http://www.w3.org/2000/svg">
<path fill-rule="evenodd" clip-rule="evenodd" d="M71.0004 0.00908868C68.9114 -0.0910814 66.7832 0.591436 65.0953 2.08532L2.7913 57.2292C-0.637635 60.2641 -0.950651 65.4983 2.09217 68.9202C5.13499 72.3421 10.3814 72.6558 13.8103 69.6209L18.9903 65.0362V118.143C18.9903 119.749 19.4955 121.237 20.3556 122.457C21.7012 124.389 23.9356 125.657 26.4688 125.666L116.421 126C120.551 126.015 123.912 122.679 123.928 118.549C123.928 118.522 123.928 118.495 123.927 118.468C123.932 118.36 123.934 118.252 123.934 118.143V65.8539L128.191 69.6209C131.619 72.6558 136.866 72.3421 139.909 68.9202C142.952 65.4983 142.638 60.2641 139.21 57.2292L76.9055 2.08532C75.2177 0.591436 73.0894 -0.0910814 71.0004 0.00908868ZM33.9823 110.737V51.7671L71.0004 19.0033L108.942 52.5848V111.015L33.9823 110.737ZM75.96 49.8567V66.8079H92.9509V75.7821H75.96V93.7305H66.9648V75.7821H48.9743V66.8079H66.9648V49.8567H75.96Z" fill="#16662E"/>
</svg>
